<svg xmlns="http://www.w3.org/2000/svg" xmlns:xlink="http://www.w3.org/1999/xlink" preserveAspectRatio="xMidYMid" width="22" height="22" viewBox="0 0 14 14">
  <defs>
    <style>

      .cls-2 {
        fill: #808080;
      }
    </style>
  </defs>
  <path d="M6.998,14.000 C3.132,14.000 -0.003,10.865 -0.003,6.998 C-0.003,3.132 3.132,-0.003 6.998,-0.003 C10.865,-0.003 14.000,3.132 14.000,6.998 C14.000,10.865 10.865,14.000 6.998,14.000 ZM7.001,1.053 C3.716,1.053 1.053,3.716 1.053,7.001 C1.053,10.286 3.716,12.949 7.001,12.949 C10.286,12.949 12.949,10.286 12.949,7.001 C12.949,3.716 10.286,1.053 7.001,1.053 ZM6.536,6.317 C6.536,6.317 8.079,4.959 8.079,4.959 C8.079,4.959 7.674,6.974 7.674,6.974 C7.674,6.974 8.432,7.412 8.432,7.412 C8.432,7.412 9.008,3.350 9.008,3.350 C9.008,3.350 5.778,5.880 5.778,5.880 C5.778,5.880 6.536,6.317 6.536,6.317 ZM6.120,7.215 C6.120,6.852 6.414,6.558 6.777,6.558 C7.139,6.558 7.433,6.852 7.433,7.215 C7.433,7.577 7.139,7.871 6.777,7.871 C6.414,7.871 6.120,7.577 6.120,7.215 ZM7.017,8.112 C7.017,8.112 5.474,9.470 5.474,9.470 C5.474,9.470 5.880,7.455 5.880,7.455 C5.880,7.455 5.121,7.017 5.121,7.017 C5.121,7.017 4.546,11.079 4.546,11.079 C4.546,11.079 7.775,8.549 7.775,8.549 C7.775,8.549 7.017,8.112 7.017,8.112 Z" id="path-1" class="cls-2" fill-rule="evenodd"/>
</svg>
