<svg xmlns="http://www.w3.org/2000/svg" xmlns:xlink="http://www.w3.org/1999/xlink" preserveAspectRatio="xMidYMid" width="20" height="20" viewBox="0 0 36 36">
  <defs>
    <style>

      .cls-2 {
        fill: #4cd964;
      }
    </style>
  </defs>
  <path d="M18.000,36.000 C8.059,36.000 0.000,27.941 0.000,18.000 C0.000,8.059 8.059,-0.000 18.000,-0.000 C27.941,-0.000 36.000,8.059 36.000,18.000 C36.000,27.941 27.941,36.000 18.000,36.000 ZM27.000,17.182 C27.000,17.182 18.818,17.182 18.818,17.182 C18.818,17.182 18.818,9.000 18.818,9.000 C18.818,9.000 17.182,9.000 17.182,9.000 C17.182,9.000 17.182,17.182 17.182,17.182 C17.182,17.182 9.000,17.182 9.000,17.182 C9.000,17.182 9.000,18.818 9.000,18.818 C9.000,18.818 17.182,18.818 17.182,18.818 C17.182,18.818 17.182,27.000 17.182,27.000 C17.182,27.000 18.818,27.000 18.818,27.000 C18.818,27.000 18.818,18.818 18.818,18.818 C18.818,18.818 27.000,18.818 27.000,18.818 C27.000,18.818 27.000,17.182 27.000,17.182 Z" id="path-1" class="cls-2" fill-rule="evenodd"/>
</svg>
