<svg xmlns="http://www.w3.org/2000/svg" xmlns:xlink="http://www.w3.org/1999/xlink" preserveAspectRatio="xMidYMid" width="22" height="22" viewBox="0 0 14 14">
  <defs>
    <style>

      .cls-2 {
        fill: #808080;
      }
    </style>
  </defs>
  <path d="M14.000,12.250 C14.000,13.215 13.215,14.000 12.250,14.000 C12.250,14.000 1.750,14.000 1.750,14.000 C0.785,14.000 -0.000,13.215 -0.000,12.250 C-0.000,12.250 -0.000,3.937 -0.000,3.937 C-0.000,3.706 0.048,3.486 0.131,3.285 C0.048,3.081 -0.000,2.859 -0.000,2.625 C-0.000,2.625 -0.000,1.750 -0.000,1.750 C-0.000,0.785 0.785,-0.000 1.750,-0.000 C1.750,-0.000 12.250,-0.000 12.250,-0.000 C13.215,-0.000 14.000,0.785 14.000,1.750 C14.000,1.750 14.000,2.625 14.000,2.625 C14.000,2.859 13.952,3.081 13.869,3.285 C13.952,3.486 14.000,3.706 14.000,3.937 C14.000,3.937 14.000,12.250 14.000,12.250 ZM13.125,1.750 C13.125,1.268 12.733,0.875 12.250,0.875 C12.250,0.875 1.750,0.875 1.750,0.875 C1.267,0.875 0.875,1.268 0.875,1.750 C0.875,1.750 0.875,2.625 0.875,2.625 C0.875,3.107 1.267,3.500 1.750,3.500 C1.750,3.500 12.250,3.500 12.250,3.500 C12.733,3.500 13.125,3.107 13.125,2.625 C13.125,2.625 13.125,1.750 13.125,1.750 ZM13.125,4.131 C12.866,4.282 12.570,4.375 12.250,4.375 C12.250,4.375 1.750,4.375 1.750,4.375 C1.430,4.375 1.133,4.282 0.875,4.131 C0.875,4.131 0.875,12.250 0.875,12.250 C0.875,12.732 1.267,13.125 1.750,13.125 C1.750,13.125 12.250,13.125 12.250,13.125 C12.733,13.125 13.125,12.732 13.125,12.250 C13.125,12.250 13.125,4.131 13.125,4.131 ZM11.812,6.562 C11.812,6.562 11.353,6.562 11.353,6.562 C11.133,8.770 9.265,10.500 7.000,10.500 C4.735,10.500 2.867,8.770 2.647,6.562 C2.647,6.562 2.187,6.562 2.187,6.562 C1.946,6.562 1.750,6.367 1.750,6.125 C1.750,5.883 1.946,5.687 2.187,5.687 C2.187,5.687 3.937,5.687 3.937,5.687 C4.179,5.687 4.375,5.883 4.375,6.125 C4.375,6.367 4.179,6.562 3.937,6.562 C3.937,6.562 3.530,6.562 3.530,6.562 C3.747,8.286 5.219,9.625 7.000,9.625 C8.781,9.625 10.253,8.286 10.470,6.562 C10.470,6.562 10.062,6.562 10.062,6.562 C9.821,6.562 9.625,6.367 9.625,6.125 C9.625,5.883 9.821,5.687 10.062,5.687 C10.062,5.687 11.812,5.687 11.812,5.687 C12.054,5.687 12.250,5.883 12.250,6.125 C12.250,6.367 12.054,6.562 11.812,6.562 Z" id="path-1" class="cls-2" fill-rule="evenodd"/>
</svg>
