<svg xmlns="http://www.w3.org/2000/svg" xmlns:xlink="http://www.w3.org/1999/xlink" preserveAspectRatio="xMidYMid" width="22" height="22" viewBox="0 0 13 14">
  <defs>
    <style>

      .cls-2 {
        fill: #2364ae;
      }
    </style>
  </defs>
  <path d="M11.852,13.684 C11.645,13.684 11.476,13.546 11.417,13.360 C11.417,13.360 11.292,13.360 11.292,13.360 C10.852,10.833 8.726,8.913 6.156,8.913 C3.586,8.913 1.460,10.833 1.020,13.360 C1.020,13.360 0.897,13.360 0.897,13.360 C0.839,13.546 0.671,13.684 0.466,13.684 C0.213,13.684 0.008,13.478 0.008,13.225 C0.008,13.225 0.003,13.183 0.003,13.183 C0.003,13.030 0.082,12.902 0.196,12.818 C0.684,10.734 2.157,9.054 4.090,8.333 C2.764,7.573 1.856,6.130 1.856,4.453 C1.856,1.991 3.789,-0.004 6.174,-0.004 C8.559,-0.004 10.493,1.991 10.493,4.453 C10.493,6.129 9.585,7.572 8.260,8.333 C10.204,9.056 11.683,10.751 12.163,12.850 C12.252,12.934 12.309,13.051 12.309,13.183 C12.309,13.183 12.314,13.225 12.314,13.225 C12.314,13.478 12.107,13.684 11.852,13.684 ZM9.536,4.454 C9.536,2.520 8.022,0.952 6.154,0.952 C4.286,0.952 2.771,2.520 2.771,4.454 C2.771,6.388 4.286,7.956 6.154,7.956 C8.022,7.956 9.536,6.388 9.536,4.454 Z" id="path-1" class="cls-2" fill-rule="evenodd"/>
</svg>
